<svg id="Layer_1" height="512" viewBox="0 0 150 150" width="512" xmlns="http://www.w3.org/2000/svg" data-name="Layer 1"><path d="m139 75a64 64 0 1 1 -64-64 64 64 0 0 1 64 64" fill="#ea8953"/><path d="m62.84 28.32h3.62v36.65h-3.62z" fill="#e1e6e9" transform="matrix(.523 -.852 .852 .523 -8.91 77.37)"/><path d="m75.07 32.93h6.03v43.9h-6.03z" fill="#3a556a" transform="matrix(.523 -.853 .853 .523 -9.52 92.77)"/><path d="m46.35 35.06v16.17h3.5v-16.17h.66v16.82h-4.82v-16.82z" fill="#2f4859"/><path d="m48.1 67.68a3 3 0 0 0 .65-5.9v-3.91a.65.65 0 0 0 -1.3 0v4.49a.65.65 0 0 0 .65.65 1.69 1.69 0 1 1 -1.69 1.68.65.65 0 1 0 -1.3 0 3 3 0 0 0 2.99 2.99z" fill="#3a556a"/><path d="m42.22 53.58 2.34-4.06a1.38 1.38 0 0 1 1.2-.69h4.68a1.39 1.39 0 0 1 1.2.69l2.36 4.06a1.41 1.41 0 0 1 0 1.42l-2.34 4a1.39 1.39 0 0 1 -1.2.69h-4.7a1.38 1.38 0 0 1 -1.2-.69l-2.34-4a1.41 1.41 0 0 1 0-1.42z" fill="#fcd462"/><circle cx="48.1" cy="54.27" fill="#3a556a" r="2.43"/><circle cx="48.1" cy="35.85" fill="#3a556a" r="4.16"/><path d="m48.1 33.77a2.08 2.08 0 1 1 -2.1 2.08 2.08 2.08 0 0 1 2.1-2.08z" fill="#ebf0f3"/><path d="m94.41 60.44a4 4 0 0 0 -4 4v15.69h8v-15.69a4 4 0 0 0 -4-4z" fill="#2f4859"/><path d="m99 99.34h-47.95a9.49 9.49 0 0 0 0 19h47.95a9.49 9.49 0 0 0 0-19z" fill="#3a556a"/><path d="m51.05 115.7a6.87 6.87 0 1 1 0-13.74h47.95a6.87 6.87 0 0 1 0 13.74z" fill="#2f4859"/><path d="m51.7 103.71a5.12 5.12 0 1 0 5.12 5.12 5.11 5.11 0 0 0 -5.12-5.12z" fill="#e1e6e9"/><path d="m51.7 105.85a3 3 0 1 0 3 3 3 3 0 0 0 -3-3z" fill="#3a556a"/><path d="m67.23 103.71a5.12 5.12 0 1 0 5.12 5.12 5.11 5.11 0 0 0 -5.12-5.12z" fill="#e1e6e9"/><path d="m67.23 105.85a3 3 0 1 0 3 3 3 3 0 0 0 -3-3z" fill="#3a556a"/><path d="m82.77 103.71a5.12 5.12 0 1 0 5.11 5.12 5.12 5.12 0 0 0 -5.11-5.12z" fill="#e1e6e9"/><path d="m82.77 105.85a3 3 0 1 0 3 3 3 3 0 0 0 -3-3z" fill="#3a556a"/><path d="m98.3 103.71a5.12 5.12 0 1 0 5.11 5.12 5.12 5.12 0 0 0 -5.11-5.12z" fill="#e1e6e9"/><path d="m98.3 105.85a3 3 0 1 0 3 3 3 3 0 0 0 -3-3z" fill="#3a556a"/><path d="m102.05 77.16h-16.92v-8.37a2.47 2.47 0 0 0 -2.47-2.48h-24.18a2.47 2.47 0 0 0 -2.24 1.42l-9.92 21a1.89 1.89 0 0 0 -.29 1v7.7a1.92 1.92 0 0 0 1.97 1.91h54.1a1.92 1.92 0 0 0 1.9-1.92v-18.34a1.92 1.92 0 0 0 -1.92-1.92" fill="#fcd462"/><path d="m82.57 70.42v9.35l-.1 7.81a1.52 1.52 0 0 1 -1.47 1.48h-29.51a1.5 1.5 0 0 1 -1.36-2.15l8.09-17.12a1.52 1.52 0 0 1 1.36-.86h21.49a1.5 1.5 0 0 1 1.5 1.49" fill="#3a556a"/><path d="m69.61 68.93h-1.41l-10.32 20.13h1.41z" fill="#667c8c"/><path d="m75.14 68.93h-3.37l-10.32 20.13h3.37z" fill="#667c8c"/><circle cx="94.41" cy="64.47" fill="#e1e6e9" r="1.84"/></svg>