<svg id="gradient" enable-background="new 0 0 512 512" height="512" viewBox="0 0 512 512" width="512" xmlns="http://www.w3.org/2000/svg" xmlns:xlink="http://www.w3.org/1999/xlink"><linearGradient id="SVGID_1_" gradientUnits="userSpaceOnUse" x1="132.343" x2="431.657" y1="136.343" y2="435.657"><stop offset="0" stop-color="#ff0"/><stop offset=".2613271" stop-color="#fbb03b"/><stop offset="1" stop-color="#f15a24"/></linearGradient><path d="m136 320.3847656c-21.84375 0-39.6147461 17.7714844-39.6147461 39.6152344s17.7709961 39.6152344 39.6147461 39.6152344 39.6147461-17.7714844 39.6147461-39.6152344-17.7709961-39.6152344-39.6147461-39.6152344zm0 63.2304688c-13.0209961 0-23.6147461-10.59375-23.6147461-23.6152344s10.59375-23.6152344 23.6147461-23.6152344 23.6147461 10.59375 23.6147461 23.6152344-10.59375 23.6152344-23.6147461 23.6152344zm16-23.6152344c0 8.8222656-7.1777344 16-16 16s-16-7.1777344-16-16 7.1777344-16 16-16 16 7.1777344 16 16zm288 0c0 8.8222656-7.1777344 16-16 16s-16-7.1777344-16-16 7.1777344-16 16-16 16 7.1777344 16 16zm-80 0c0 8.8222656-7.1777344 16-16 16s-16-7.1777344-16-16 7.1777344-16 16-16 16 7.1777344 16 16zm-176-96c0-4.4179688 3.581543-8 8-8h8c4.418457 0 8 3.5820313 8 8s-3.581543 8-8 8h-8c-4.418457 0-8-3.5820312-8-8zm320-120h-16c-2.6748047 0-5.1728516 1.3369141-6.65625 3.5625l-11.8208008 17.7312012-89.4921875-52.2038574c-2.4902344-1.453125-5.5712891-1.453125-8.0615234 0l-88.6296387 51.7006836-20.1843262-40.3686523c-1.3549804-2.709961-4.125-4.4218751-7.1552734-4.4218751h-72c-4.418457 0-8 3.5820313-8 8v24c0 4.4179688 3.581543 8 8 8h40v8h-96c-3.4433594 0-6.5004883 2.203125-7.5893555 5.4697266l-7.9272461 23.7817383-14.3014526 35.7536621-75.7507935 15.1501465c-3.7392578.7480468-6.4311523 4.0312499-6.4311523 7.8447265v80h-8c-4.418457 0-8 3.5820313-8 8v24c0 3.8134766 2.6918945 7.0966797 6.4311523 7.8447266l80 16c.5209961.1044922 1.0463868.1552734 1.5688477.1552734 1.8334961 0 3.6293945-.6308594 5.0717773-1.8134766 1.8535157-1.5195312 2.9282227-3.790039 2.9282227-6.1865234v-40-24c0-4.4111328 3.5888672-8 8-8h72v24 48c0 4.4179688 3.581543 8 8 8h112c4.418457 0 8-3.5820313 8-8v-16h1.2126465c3.7099609 18.0141602 19.6916504 31.6005859 38.7873535 31.6005859s35.0773926-13.5864257 38.7873535-31.6005859h2.425293c3.7099609 18.0141602 19.6916504 31.6005859 38.7873535 31.6005859s35.0773926-13.5864257 38.7873535-31.6005859h1.2126465v16c0 4.4179688 3.581543 8 8 8s8-3.5820313 8-8v-56c0-2.1220703-.8427734-4.15625-2.3432617-5.6572266l-10.3427735-10.3427734h20.6860352c2.121582 0 4.15625-.8427734 5.6567383-2.3427734l16-16c1.5004883-1.5 2.3432617-3.5351563 2.3432617-5.6572266v-80-56c0-4.4179687-3.581543-8-8-8zm-128-14.7382812 66.4088135 38.7382812h-132.817627zm-184 14.7382812v-8h59.0556641l21.7890625 43.578125c1.3549804 2.7099609 4.125 4.421875 7.1552734 4.421875h192c2.6748047 0 5.1728516-1.3369141 6.65625-3.5625l13.625-20.4375h3.71875v40h-256v-24-24c0-4.4179688-3.581543-8-8-8zm98.3432617 178.3427734c-1.5004883 1.5009766-2.3432617 3.5351563-2.3432617 5.6572266h-48v-16h60.6860352zm-131.0629883-99.0026855 6.1362305-15.3400879h58.5834961v16h-40c-2.121582 0-4.1567383.8427734-5.6567383 2.3427734l-5.6567383 5.6572266h-16.8701172zm-25.5141601-39.3400879h90.2338867v8h-64-28.9003906zm14.4178467 24-9.5999756 24h-22.7679444l9.5999756-24zm-116.18396 54.5585938 72.7919922-14.5585938h31.2080078v16h-48c-22.0561523 0-40 17.9443359-40 40v32h-16zm48 111.6826171-64-12.7998047v-9.4414062h64zm24-78.2412109c-13.2338867 0-24 10.7666016-24 24v16h-16v-32c0-13.2333984 10.7661133-24 24-24h56c10.4301758 0 19.3271484 6.6875 22.6289063 16zm48-31.1950684v-16.8049316h24c2.121582 0 4.1567383-.8427734 5.6567383-2.3427734l5.6567383-5.6572266h36.6865234v56h-40.8049316c-3.1895142-15.6496582-15.545105-28.0053711-31.1950684-31.1950684zm72 47.1950684v16h-32v-16zm-32 32h96v32h-96zm152 39.6005859c-13.0131836 0-23.6000977-10.5869141-23.6000977-23.6005859 0-13.0126953 10.5869141-23.5996094 23.6000977-23.5996094s23.6000977 10.5869141 23.6000977 23.5996094c0 13.0136719-10.5869141 23.6005859-23.6000977 23.6005859zm80 0c-13.0131836 0-23.6000977-10.5869141-23.6000977-23.6005859 0-13.0126953 10.5869141-23.5996094 23.6000977-23.5996094s23.6000977 10.5869141 23.6000977 23.5996094c0 13.0136719-10.5869141 23.6005859-23.6000977 23.6005859zm40-52.2871093v20.6865234h-1.2126465c-3.7103271-18.0131836-19.6918945-31.5996094-38.7873535-31.5996094s-35.0770264 13.5864258-38.7873535 31.5996094h-2.425293c-3.7103271-18.0131836-19.6918945-31.5996094-38.7873535-31.5996094s-35.0770264 13.5864258-38.7873535 31.5996094h-1.2126465v-20.6865234l19.3139648-19.3134766h121.3720703zm20.6865234-35.3134766h-244.6865234v-64-16h256v68.6865234zm-172.6865234-64h-48c-4.418457 0-8 3.5820313-8 8v32c0 4.4179688 3.581543 8 8 8h48c4.418457 0 8-3.5820313 8-8v-32c0-4.4179687-3.581543-8-8-8zm-8 32h-32v-16h32zm88-32h-48c-4.418457 0-8 3.5820313-8 8v32c0 4.4179688 3.581543 8 8 8h48c4.418457 0 8-3.5820313 8-8v-32c0-4.4179687-3.581543-8-8-8zm-8 32h-32v-16h32zm88-32h-48c-4.418457 0-8 3.5820313-8 8v32c0 4.4179688 3.581543 8 8 8h48c4.418457 0 8-3.5820313 8-8v-32c0-4.4179687-3.581543-8-8-8zm-8 32h-32v-16h32z" fill="url(#SVGID_1_)"/></svg>